<svg width="28" height="24" viewBox="0 0 28 24" fill="none" xmlns="http://www.w3.org/2000/svg">
<path d="M27 0H0.272727C0.122727 0 0 0.122727 0 0.272727V2.45455C0 2.60455 0.122727 2.72727 0.272727 2.72727H27C27.15 2.72727 27.2727 2.60455 27.2727 2.45455V0.272727C27.2727 0.122727 27.15 0 27 0ZM27 21.2727H0.272727C0.122727 21.2727 0 21.3955 0 21.5455V23.7273C0 23.8773 0.122727 24 0.272727 24H27C27.15 24 27.2727 23.8773 27.2727 23.7273V21.5455C27.2727 21.3955 27.15 21.2727 27 21.2727ZM27 10.6364H0.272727C0.122727 10.6364 0 10.7591 0 10.9091V13.0909C0 13.2409 0.122727 13.3636 0.272727 13.3636H27C27.15 13.3636 27.2727 13.2409 27.2727 13.0909V10.9091C27.2727 10.7591 27.15 10.6364 27 10.6364Z" fill="#FB9DAB"/>
</svg>
