<svg width="19" height="18" viewBox="0 0 19 18" fill="none" xmlns="http://www.w3.org/2000/svg">
<path d="M7.3132 5.04137C9.18537 3.15907 13.8669 6.45226 7.3132 10.6872C0.759459 6.45226 5.44102 3.1602 7.3132 5.04137Z" fill="white"/>
<path d="M14.6264 7.31184C14.6288 8.86767 14.1328 10.3834 13.211 11.6367C13.256 11.6705 13.2987 11.7065 13.3404 11.747L17.672 16.0787C17.8831 16.2896 18.0018 16.5758 18.0019 16.8743C18.002 17.1727 17.8836 17.459 17.6726 17.6701C17.4616 17.8812 17.1754 17.9999 16.877 18C16.5785 18.0001 16.2922 17.8816 16.0811 17.6707L11.7495 13.339C11.7088 13.2988 11.6712 13.2555 11.637 13.2096H11.6392C10.3136 14.1822 8.69902 14.6797 7.05596 14.6218C5.4129 14.564 3.83726 13.9542 2.58333 12.8909C1.3294 11.8276 0.470341 10.3728 0.144804 8.76124C-0.180733 7.14972 0.0462418 5.47551 0.789096 4.00883C1.53195 2.54214 2.74734 1.36855 4.23912 0.677472C5.7309 -0.01361 7.41202 -0.181867 9.01117 0.199856C10.6103 0.581579 12.0342 1.49101 13.053 2.78138C14.0718 4.07174 14.6261 5.66776 14.6264 7.31184V7.31184ZM7.31319 13.4999C8.12582 13.4999 8.93049 13.3399 9.68127 13.0289C10.432 12.7179 11.1142 12.2621 11.6888 11.6875C12.2634 11.1129 12.7192 10.4307 13.0302 9.67991C13.3412 8.92914 13.5013 8.12447 13.5013 7.31184C13.5013 6.49921 13.3412 5.69454 13.0302 4.94376C12.7192 4.19299 12.2634 3.51082 11.6888 2.93621C11.1142 2.36159 10.432 1.90578 9.68127 1.5948C8.93049 1.28382 8.12582 1.12376 7.31319 1.12376C5.67201 1.12376 4.09805 1.77572 2.93756 2.93621C1.77707 4.0967 1.12511 5.67066 1.12511 7.31184C1.12511 8.95302 1.77707 10.527 2.93756 11.6875C4.09805 12.848 5.67201 13.4999 7.31319 13.4999V13.4999Z" fill="white"/>
</svg>
