<svg width="19" height="18" viewBox="0 0 19 18" fill="none" xmlns="http://www.w3.org/2000/svg">
<path d="M6.61535 18C7.46114 18 8.14678 17.3144 8.14678 16.4686C8.14678 15.6228 7.46114 14.9371 6.61535 14.9371C5.76957 14.9371 5.08392 15.6228 5.08392 16.4686C5.08392 17.3144 5.76957 18 6.61535 18Z" fill="white"/>
<path d="M14.5788 18C15.4246 18 16.1102 17.3144 16.1102 16.4686C16.1102 15.6228 15.4246 14.9371 14.5788 14.9371C13.733 14.9371 13.0474 15.6228 13.0474 16.4686C13.0474 17.3144 13.733 18 14.5788 18Z" fill="white"/>
<path d="M18.6218 2.31203C18.5647 2.2379 18.4914 2.17783 18.4075 2.13641C18.3236 2.095 18.2314 2.07335 18.1378 2.07313H3.98742L3.71176 1.19715C3.68148 1.1031 3.6289 1.01776 3.5585 0.948428C3.4881 0.879095 3.40197 0.827821 3.30746 0.79898L0.795918 0.0271391C0.718691 0.00340805 0.637547 -0.00487984 0.557118 0.0027488C0.476688 0.0103774 0.398549 0.0337731 0.327162 0.0716C0.182988 0.147995 0.0750668 0.278534 0.0271398 0.434499C-0.0207871 0.590465 -0.00479394 0.759082 0.0716009 0.903255C0.147996 1.04743 0.278535 1.15535 0.4345 1.20328L2.63363 1.87711L5.43921 10.741L4.44072 11.5619L4.36109 11.6415C4.11416 11.9274 3.97426 12.2903 3.96532 12.668C3.95638 13.0456 4.07896 13.4147 4.31208 13.712C4.47904 13.915 4.69121 14.0762 4.9316 14.1826C5.17199 14.2889 5.43394 14.3376 5.69649 14.3246H15.9203C16.0828 14.3246 16.2386 14.26 16.3535 14.1451C16.4684 14.0303 16.5329 13.8745 16.5329 13.712C16.5329 13.5495 16.4684 13.3937 16.3535 13.2788C16.2386 13.164 16.0828 13.0994 15.9203 13.0994H5.59848C5.52794 13.097 5.45922 13.0765 5.39894 13.0397C5.33867 13.003 5.28888 12.9514 5.2544 12.8898C5.21991 12.8282 5.20189 12.7588 5.20207 12.6882C5.20225 12.6176 5.22064 12.5483 5.25544 12.4869L6.73174 11.2617H16.1837C16.3237 11.2658 16.4608 11.2218 16.5722 11.1371C16.6837 11.0524 16.7628 10.9321 16.7963 10.7962L18.7565 2.83272C18.7752 2.74139 18.7727 2.64702 18.7493 2.55679C18.726 2.46656 18.6824 2.38285 18.6218 2.31203V2.31203Z" fill="white"/>
</svg>
